<?xml version="1.0" encoding="UTF-8"?>
<svg version="1.1" xmlns="http://www.w3.org/2000/svg" width="1890" height="1417">
<path d="M0 0 C2.87662172 0.0160814 5.75183884 0.00008518 8.62841797 -0.01904297 C33.85950857 -0.04890047 33.85950857 -0.04890047 42.63232422 7.42626953 C54.61618431 20.88136244 52.67909504 41.39025621 52.64111328 58.23095703 C52.64382985 60.27629724 52.64739449 62.32163647 52.6517334 64.36697388 C52.66078052 69.8752143 52.6573451 75.38337904 52.65097523 80.89162064 C52.64587518 86.68434081 52.65061773 92.47705494 52.65374756 98.26977539 C52.65737561 107.99350129 52.65261868 117.71719671 52.64306641 127.44091797 C52.63218412 138.64719683 52.63571052 149.85340289 52.64671922 161.05967999 C52.65582529 170.719627 52.65706119 180.37955222 52.65184188 190.03950214 C52.64874038 195.79212447 52.64826237 201.54471269 52.65491486 207.29733276 C52.6607362 212.70818324 52.65660472 218.11894079 52.64512634 223.52978134 C52.64250518 225.50329307 52.64320071 227.47681275 52.64765167 229.4503212 C52.72207662 265.83267636 52.72207662 265.83267636 44.47216797 275.66845703 C33.84731057 286.03097227 19.80679592 285.57802821 5.82104492 285.57641602 C3.7169127 285.57859045 1.61331644 285.59676291 -0.49072266 285.61572266 C-13.38808371 285.67077763 -27.14256605 285.5913654 -37.46142578 276.82470703 C-45.11340614 268.74136504 -45.76877076 257.68608157 -45.75811768 247.09457397 C-45.7610888 246.16686428 -45.76405992 245.23915458 -45.76712108 244.28333247 C-45.77578277 241.1791135 -45.77731419 238.07493321 -45.77880859 234.97070312 C-45.78343859 232.74301064 -45.78846349 230.51531895 -45.79385376 228.28762817 C-45.80696304 222.23778421 -45.81341996 216.18795133 -45.81786442 210.13809538 C-45.82079777 206.35593359 -45.8249031 202.57377481 -45.82936859 198.79161453 C-45.84147464 188.30692645 -45.8518574 177.82224015 -45.85524368 167.33754539 C-45.85546325 166.6671595 -45.85568282 165.99677361 -45.85590903 165.30607299 C-45.85612731 164.63413896 -45.85634559 163.96220493 -45.85657048 163.26990926 C-45.85701394 161.90845513 -45.8574605 160.547001 -45.85791016 159.18554688 C-45.85813159 158.51022744 -45.85835302 157.83490801 -45.85858116 157.13912435 C-45.86252585 146.20621896 -45.87997142 135.27338037 -45.90326968 124.34050076 C-45.9270312 113.09888843 -45.93919018 101.85730837 -45.9406116 90.61566699 C-45.94165813 84.31078972 -45.94753369 78.00600668 -45.96543121 71.7011528 C-45.9819495 65.76677668 -45.98404908 59.83256525 -45.97529221 53.89817429 C-45.97452382 51.72625283 -45.97883817 49.55432238 -45.98875046 47.3824234 C-46.11316595 18.41057101 -46.11316595 18.41057101 -36.61767578 7.39111328 C-27.01465727 -1.29733204 -12.10487625 -0.08049278 0 0 Z M-21.99267578 23.20361328 C-29.22713984 32.9423149 -26.76644187 49.32931175 -26.76293945 60.84716797 C-26.76593521 62.81605086 -26.7693387 64.78493316 -26.77311707 66.7538147 C-26.78191881 72.0804421 -26.78429356 77.40705342 -26.78493285 82.7336874 C-26.78564552 86.06763054 -26.78778395 89.40156964 -26.79043007 92.73551178 C-26.79967082 104.38373574 -26.80376655 116.03194828 -26.80297852 127.68017578 C-26.80237806 138.51032456 -26.81292689 149.34042348 -26.82872218 160.17055964 C-26.84182951 169.49234905 -26.84716107 178.81412222 -26.84652311 188.13592076 C-26.84626906 193.6929546 -26.84906855 199.24994409 -26.85970116 204.80696869 C-26.86943602 210.03715615 -26.86942462 215.26725734 -26.86218452 220.49744797 C-26.86114536 222.40729525 -26.86346147 224.31714806 -26.86954498 226.22698593 C-27.65429265 244.21383882 -27.65429265 244.21383882 -22.93017578 261.07861328 C-16.05012967 267.95865939 -6.43773151 267.40235165 2.69482422 267.57861328 C15.71461801 267.46163735 15.71461801 267.46163735 27.38232422 262.39111328 C31.49780228 256.65884027 31.52983328 251.44785094 31.52276611 244.57391357 C31.52573724 243.67367533 31.52870836 242.77343709 31.53176951 241.84591889 C31.54045595 238.82288838 31.54196472 235.79989748 31.54345703 232.77685547 C31.54808524 230.61193253 31.55310991 228.44701041 31.5585022 226.28208923 C31.57162791 220.39561335 31.5780715 214.50914887 31.58251286 208.62266064 C31.58544331 204.94540185 31.58954807 201.26814619 31.59401703 197.59088898 C31.60769243 186.08670178 31.61735887 174.58252171 31.62121892 163.07832694 C31.62569988 149.7964031 31.64324941 136.51458217 31.67221951 123.23268962 C31.6938326 112.96759859 31.703923 102.70253653 31.70526004 92.43742299 C31.70630833 86.30590565 31.71222145 80.17448503 31.73007965 74.04299164 C31.74655377 68.27444971 31.74871894 62.50607728 31.73994064 56.73752022 C31.73916992 54.62197224 31.7435176 52.50641517 31.7533989 50.39089012 C31.76611213 47.49914099 31.76024478 44.60799274 31.74981689 41.71624756 C31.7578733 40.8823792 31.7659297 40.04851083 31.77423024 39.18937373 C31.71973722 32.71214189 30.76140228 26.83449075 26.06982422 22.01611328 C18.72185684 17.57315626 11.33334836 18.05792237 3.00732422 18.07861328 C1.71826172 18.0625 0.42919922 18.04638672 -0.89892578 18.02978516 C-8.87739276 18.02568943 -15.44258076 18.20485656 -21.99267578 23.20361328 Z " fill="#121213" transform="translate(829.61767578125,602.60888671875)"/>
<path d="M0 0 C0.94346283 -0.00570007 1.88692566 -0.01140015 2.85897827 -0.01727295 C4.85437913 -0.02670338 6.84979543 -0.03324914 8.84521484 -0.03710938 C11.86714624 -0.04677492 14.88838542 -0.07780058 17.91015625 -0.109375 C43.63778144 -0.25072972 43.63778144 -0.25072972 53.8984375 9.765625 C60.71325354 18.42703635 61.4248626 29.80909845 61.41387939 40.37867737 C61.41685052 41.28132904 61.41982164 42.18398072 61.4228828 43.11398548 C61.43152874 46.1275135 61.43307457 49.1410016 61.43457031 52.15454102 C61.43920145 54.32002344 61.4442265 56.48550505 61.44961548 58.65098572 C61.46271428 64.52735656 61.46917969 70.403716 61.47362614 76.28009915 C61.47656134 79.95557829 61.48066702 83.63105433 61.48513031 87.30653191 C61.4987995 98.81819632 61.50846861 110.32985365 61.5123322 121.84152561 C61.51680963 135.10750923 61.5343454 148.37338964 61.5633328 161.63934189 C61.5849879 171.90798418 61.59503855 182.17659751 61.59637332 192.44526237 C61.59741873 198.57133738 61.60327022 204.6973153 61.62119293 210.82336617 C61.63773952 216.59114568 61.63979721 222.3587558 61.63105392 228.12655067 C61.63028703 230.2347433 61.63457997 232.34294528 61.64451218 234.45111465 C61.70978632 249.1784419 61.62193208 262.79159389 53.7109375 275.765625 C44.45737816 285.01918434 30.79546196 285.41667926 18.43492126 285.47895813 C17.0682595 285.47735659 15.70159758 285.47230722 14.33496094 285.46386719 C12.27509145 285.45313362 10.21609357 285.46384138 8.15625 285.4765625 C-19.04767221 285.50783208 -19.04767221 285.50783208 -28.5703125 276.44921875 C-36.08717149 267.32950013 -36.88144956 255.4189108 -36.86027527 244.05207825 C-36.86254083 243.15209899 -36.86480638 242.25211974 -36.86714059 241.32486838 C-36.87345164 238.32048826 -36.87265308 235.31615358 -36.87182617 232.31176758 C-36.87481951 230.15289248 -36.87822244 227.99401791 -36.88200378 225.83514404 C-36.89083116 219.97749876 -36.8931814 214.1198681 -36.89381957 208.26221681 C-36.8945309 204.59948402 -36.8966668 200.93675493 -36.89931679 197.27402306 C-36.90856667 184.48696024 -36.9126522 171.69990785 -36.91186523 158.9128418 C-36.91126483 147.00855929 -36.92181026 135.10432216 -36.9376089 123.20005113 C-36.95070259 112.96795782 -36.95604835 102.7358793 -36.95540982 92.50377768 C-36.95515534 86.39791149 -36.9579793 80.29208562 -36.96858788 74.1862278 C-36.97829938 68.43982079 -36.97832711 62.69349237 -36.97107124 56.94708252 C-36.97002913 54.8445035 -36.97236599 52.74191951 -36.9784317 50.63934898 C-37.06464927 18.66877144 -37.06464927 18.66877144 -28.125 8.35546875 C-20.15879049 0.95307772 -10.41136417 0.04904716 0 0 Z M-13.1640625 23.453125 C-16.64743445 29.58385963 -17.01893796 35.37283323 -16.98725891 42.26046753 C-16.99108446 43.15031283 -16.99491001 44.04015812 -16.99885148 44.95696843 C-17.0091377 47.92693947 -17.00519765 50.8967156 -17.0012207 53.86669922 C-17.0055696 56.00088682 -17.01075335 58.13507286 -17.01670837 60.26925659 C-17.0300906 66.05853555 -17.03067788 71.8477492 -17.02814507 77.63704062 C-17.02707481 82.47299764 -17.03196016 87.30894148 -17.0367505 92.14489567 C-17.04784306 103.55542878 -17.04828453 114.96592896 -17.04223633 126.37646484 C-17.03619625 138.1410976 -17.04850907 149.90561076 -17.0698064 161.67022312 C-17.08742942 171.77743538 -17.09342263 181.88460961 -17.09016865 191.99183667 C-17.08835674 198.02552424 -17.09098292 204.0591265 -17.10488319 210.09280014 C-17.11746819 215.76782807 -17.11551092 221.44266975 -17.10247231 227.11769485 C-17.10010844 229.19734511 -17.10283439 231.27700849 -17.11109543 233.35664368 C-17.12158055 236.20191582 -17.11344793 239.04656504 -17.1007843 241.89181519 C-17.10815859 242.7090515 -17.11553287 243.52628782 -17.12313062 244.36828887 C-17.05812022 251.34138521 -15.80097444 257.63740497 -11.3515625 263.140625 C-1.78815564 269.9716299 15.29760385 267.82524151 26.2734375 266.515625 C31.74644615 265.56901449 34.64228339 264.42311491 38.2734375 260.203125 C41.73059129 253.94732291 41.42075584 246.39217483 41.40715027 239.41825867 C41.4105486 238.12742637 41.4105486 238.12742637 41.41401559 236.81051666 C41.42032333 233.9396633 41.4195283 231.06885755 41.41870117 228.19799805 C41.42169467 226.1343988 41.42509764 224.07080011 41.42887878 222.00720215 C41.43770345 216.4100133 41.44005625 210.81283974 41.44069457 205.2156446 C41.44140593 201.71641681 41.44354188 198.2171929 41.44619179 194.71796608 C41.45544005 182.50378803 41.45952731 170.28962089 41.45874023 158.07543945 C41.45813954 146.70052699 41.46869108 135.32566196 41.4844839 123.9507615 C41.49757073 114.17559578 41.50292365 104.40044555 41.50228482 94.62527114 C41.50203018 88.79109994 41.50486298 82.95697091 41.51546288 77.12280846 C41.52516308 71.63413009 41.52520982 66.14553404 41.51794624 60.65685272 C41.5169028 58.64696189 41.51924895 56.63706589 41.5253067 54.62718391 C42.43945403 37.47957084 42.43945403 37.47957084 36.2734375 22.203125 C28.55053983 17.60224979 21.36706899 17.9890213 12.5859375 17.953125 C10.72291992 17.9221875 10.72291992 17.9221875 8.82226562 17.890625 C-3.08981765 17.82551609 -3.08981765 17.82551609 -13.1640625 23.453125 Z " fill="#121213" transform="translate(1044.7265625,602.796875)"/>
<path d="M0 0 C2.87883888 0.02907178 5.75584111 0.02054752 8.63476562 0.00756836 C33.1861488 0.03647683 33.1861488 0.03647683 42.83789062 8.92749023 C50.4778708 16.86561597 51.38459637 28.11483892 51.36547852 38.68701172 C51.36562454 39.37078384 51.36577057 40.05455597 51.36592102 40.75904846 C51.36523067 42.9936147 51.35747989 45.22809501 51.34960938 47.46264648 C51.34774207 49.02205866 51.34631964 50.58147143 51.34532166 52.1408844 C51.34152108 56.22612149 51.33171204 60.31132249 51.32061768 64.39654541 C51.31035044 68.57287101 51.30581269 72.7492025 51.30078125 76.92553711 C51.29008735 85.10589398 51.27251071 93.2862147 51.25195312 101.46655273 C44.98195313 101.46655273 38.71195313 101.46655273 32.25195312 101.46655273 C32.22222412 98.53824585 32.22222412 98.53824585 32.19189453 95.55078125 C32.12389474 89.07270309 32.04710291 82.59477486 31.96442604 76.11686802 C31.91465741 72.19253072 31.8683271 68.26821783 31.83007812 64.34375 C31.79297799 60.5505202 31.74655408 56.75750487 31.69388962 52.96446037 C31.6754761 51.52336356 31.66032099 50.08222101 31.64860916 48.64105415 C31.96881223 35.3876296 31.96881223 35.3876296 27.06445312 23.52905273 C19.9825743 18.33567493 11.74883285 19.13214525 3.31445312 19.15405273 C2.07759766 19.13793945 0.84074219 19.12182617 -0.43359375 19.10522461 C-11.09329191 19.02453797 -11.09329191 19.02453797 -20.35081959 23.82719517 C-27.27575256 31.95217338 -25.16065359 46.18519008 -25.12036133 56.10351562 C-25.12279183 58.19873739 -25.12651366 60.29395799 -25.13142395 62.38917542 C-25.14080051 68.05849062 -25.13143497 73.72763219 -25.11809182 79.39693379 C-25.10674444 85.3397722 -25.11088734 91.28260247 -25.11283875 97.22544861 C-25.11372061 107.20273665 -25.10266318 117.1799566 -25.08422852 127.15722656 C-25.06305679 138.68162355 -25.05955293 150.20592088 -25.06579047 161.73033339 C-25.07149084 172.83193337 -25.0658309 183.93349837 -25.05461693 195.03509331 C-25.04998046 199.75297126 -25.04909296 204.47082775 -25.05120277 209.18870735 C-25.05309045 214.74638242 -25.04494484 220.30395647 -25.02914238 225.86160851 C-25.02491072 227.89771736 -25.02404143 229.93383648 -25.02683258 231.96994781 C-25.03007138 234.7558369 -25.02092997 237.54142737 -25.00874329 240.32728577 C-25.01252261 241.12691193 -25.01630193 241.9265381 -25.02019578 242.75039536 C-24.96890696 249.40927035 -24.65246534 256.04742657 -20.43554688 261.40405273 C-10.51203053 269.01977458 5.56608405 267.22002465 17.31445312 265.71655273 C22.1074425 265.06378747 24.95288051 264.0938636 28.25195312 260.46655273 C32.46787884 251.71575722 31.72929511 241.67543923 31.76367188 232.20874023 C31.78054297 230.45182052 31.79869643 228.6949127 31.81806946 226.9380188 C31.86531196 222.34488645 31.89528713 217.75180233 31.92150879 213.1585083 C31.95144514 208.45900959 31.99793014 203.75967667 32.04296875 199.06030273 C32.12870858 189.86245434 32.19465118 180.6646223 32.25195312 171.46655273 C38.52195312 171.46655273 44.79195312 171.46655273 51.25195312 171.46655273 C51.32008853 181.89895679 51.37497492 192.33120986 51.40738964 202.76378727 C51.42295742 207.60953692 51.44403056 212.45512471 51.47827148 217.30078125 C51.51118542 221.98869322 51.52887271 226.6764508 51.53658485 231.36446953 C51.54207149 233.1411831 51.55278301 234.91788949 51.5691433 236.69453621 C51.84128009 267.51006685 51.84128009 267.51006685 42.25195312 277.46655273 C27.65789386 289.47995518 2.26012604 286.52957816 -15.60205078 285.2644043 C-23.76617835 284.38973528 -31.97034977 282.68774045 -37.74804688 276.46655273 C-47.39101341 262.72375661 -46.0418881 245.37810199 -46.00683594 229.36303711 C-46.00955112 227.26548644 -46.013115 225.16793673 -46.01745605 223.07038879 C-46.02651958 217.41134331 -46.02306085 211.75237132 -46.01669788 206.09332466 C-46.01160648 200.14884377 -46.01633802 194.20436885 -46.01947021 188.2598877 C-46.02310074 178.2804248 -46.01833477 168.30099158 -46.00878906 158.3215332 C-45.9979063 146.81192505 -46.00143252 135.30238779 -46.01244187 123.79278135 C-46.02154082 113.88067888 -46.0227873 103.96859764 -46.01756454 94.05649233 C-46.01445915 88.14964417 -46.01399592 82.24282925 -46.02063751 76.33598328 C-46.02644837 70.78070981 -46.02234609 65.22552704 -46.010849 59.67026329 C-46.00822232 57.6410862 -46.00893308 55.61190137 -46.01337433 53.58272743 C-46.08088587 19.58196863 -46.08088587 19.58196863 -38.16601562 9.43920898 C-27.96559557 -0.71826193 -13.36480846 -0.14730522 0 0 Z " fill="#121213" transform="translate(698.748046875,602.533447265625)"/>
<path d="M0 0 C1.38264793 -0.00287018 1.38264793 -0.00287018 2.79322815 -0.00579834 C4.73202794 -0.00715214 6.67083705 -0.00351228 8.60961914 0.00488281 C11.5544094 0.01558141 14.49858799 0.00496628 17.44335938 -0.0078125 C19.33724091 -0.00649052 21.23112207 -0.00392734 23.125 0 C23.99402451 -0.00404846 24.86304901 -0.00809692 25.75840759 -0.01226807 C35.7707023 0.06338079 44.12380654 1.99893574 52.12890625 8.265625 C61.43732952 18.01836442 60.55357203 33.7201145 60.421875 46.28515625 C60.41626416 47.88082984 60.41200112 49.47650868 60.40901184 51.07218933 C60.3976799 55.22652014 60.36831657 59.380525 60.3348999 63.534729 C60.30394433 67.79198806 60.29045263 72.04930093 60.27539062 76.30664062 C60.24343273 84.62646669 60.19076362 92.94596747 60.12890625 101.265625 C53.85890625 101.265625 47.58890625 101.265625 41.12890625 101.265625 C41.11432373 99.25283447 41.09974121 97.24004395 41.0847168 95.16625977 C41.03420081 88.48856751 40.96757658 81.81110428 40.89319134 75.13363743 C40.84861456 71.08821701 40.8093312 67.04289437 40.7824707 62.99731445 C40.75631011 59.08730356 40.71581959 55.17767148 40.66571999 51.26789665 C40.64913694 49.78215208 40.63756966 48.29634212 40.63129234 46.81051826 C40.78066369 35.15622725 40.78066369 35.15622725 37.12890625 24.265625 C29.8319723 18.05546845 22.0187144 19.05150256 12.87890625 19.015625 C11.58082031 18.995 10.28273438 18.974375 8.9453125 18.953125 C-2.49197883 18.88861288 -2.49197883 18.88861288 -12.24609375 24.328125 C-17.66433727 34.12264213 -16.15391261 46.68656625 -16.12988281 57.51953125 C-16.13259582 59.57372155 -16.1361585 61.62791089 -16.14050293 63.68209839 C-16.14959227 69.23987607 -16.14609694 74.7975792 -16.13974476 80.35535812 C-16.13466686 86.18295232 -16.13938118 92.01054031 -16.14251709 97.83813477 C-16.14615152 107.62289572 -16.14137136 117.40762645 -16.13183594 127.19238281 C-16.12095241 138.49067769 -16.12447836 149.78890036 -16.13548875 161.08719349 C-16.14457652 170.8029762 -16.14583961 180.51873723 -16.14061141 190.23452282 C-16.13749991 196.03063833 -16.13705981 201.82671995 -16.14368439 207.62283325 C-16.14947889 213.07298269 -16.14542246 218.5230394 -16.13389587 223.97317886 C-16.13126054 225.96855643 -16.13199504 227.96394186 -16.1364212 229.95931625 C-17.06189658 247.08260848 -17.06189658 247.08260848 -10.87109375 262.265625 C0.66475233 268.85753704 16.65190375 266.79502034 29.25390625 265.09375 C32.85779658 264.05567289 34.56073858 263.02467 37.12890625 260.265625 C41.15302475 251.51491887 40.60691889 242.3190758 40.640625 232.88671875 C40.65749141 231.10594968 40.67564426 229.32519236 40.69502258 227.54444885 C40.74231588 222.88389767 40.77225848 218.22339421 40.79846191 213.56268311 C40.8283723 208.79625022 40.87486638 204.0299814 40.91992188 199.26367188 C41.00571968 189.93105702 41.07163407 180.59845854 41.12890625 171.265625 C47.39890625 171.265625 53.66890625 171.265625 60.12890625 171.265625 C60.19696 181.9933382 60.25188179 192.72090562 60.28434277 203.44878674 C60.29993042 208.4313535 60.32104111 213.4137636 60.35522461 218.39624023 C60.38806609 223.21381969 60.40581101 228.03124942 60.41353798 232.84893227 C60.41903734 234.67753769 60.42977488 236.50613589 60.44609642 238.33467674 C60.57075618 252.89317912 60.57401399 267.32374622 50.00390625 278.515625 C38.88250507 285.28517354 27.14243636 285.45237943 14.51269531 285.45092773 C12.39757898 285.45310577 10.28299268 285.47128872 8.16796875 285.49023438 C-3.77578499 285.54024665 -17.09720119 285.51250295 -26.83984375 277.68359375 C-39.81340527 264.62757315 -37.02149103 242.23980033 -37.01635742 225.27294922 C-37.01935515 223.28218015 -37.02275907 221.29141166 -37.02653503 219.30064392 C-37.03531743 213.92633933 -37.03771072 208.55205069 -37.03835082 203.17773962 C-37.03906467 199.81007188 -37.04120532 196.44240811 -37.04384804 193.07474136 C-37.05308284 181.29754634 -37.05718532 169.52036259 -37.05639648 157.74316406 C-37.0557964 146.81137368 -37.06633951 135.87963275 -37.08214015 124.94785488 C-37.0952698 115.52401687 -37.1005781 106.10019492 -37.09994107 96.67634785 C-37.09968765 91.06498478 -37.10245189 85.45366571 -37.11311913 79.84231186 C-37.12289179 74.55789821 -37.12281733 69.27356979 -37.11560249 63.98915291 C-37.1145679 62.06527772 -37.11685135 60.14139696 -37.12296295 58.2175312 C-37.15122505 48.6933322 -36.93762603 39.28045715 -35.9691925 29.79959106 C-35.8900902 29.01768933 -35.8109879 28.2357876 -35.72948855 27.43019187 C-35.08933576 21.8012363 -33.97578544 17.02543108 -30.87109375 12.265625 C-30.33162109 11.41484375 -30.33162109 11.41484375 -29.78125 10.546875 C-22.95426805 1.16839474 -10.71024327 -0.04977909 0 0 Z " fill="#121213" transform="translate(1176.87109375,602.734375)"/>
<path d="M0 0 C6.6 0 13.2 0 20 0 C20 86.79 20 173.58 20 263 C36.5 263 53 263 70 263 C70 268.94 70 274.88 70 281 C46.9 281 23.8 281 0 281 C0 188.27 0 95.54 0 0 Z " fill="#121213" transform="translate(919,605)"/>
</svg>
